<?xml version="1.0" encoding="UTF-8"?>
<svg version="1.1" xmlns="http://www.w3.org/2000/svg" width="1500" height="356">
<path d="M0 0 C1.33875687 0.00303635 1.33875687 0.00303635 2.70455933 0.00613403 C4.10688309 0.00350555 4.10688309 0.00350555 5.53753662 0.00082397 C8.6440107 -0.00359617 11.75042837 -0.00065598 14.85690308 0.00271606 C17.00542207 0.00204307 19.15394099 0.00107309 21.30245972 -0.00018311 C25.81182579 -0.0016603 30.3211721 0.00049517 34.83053589 0.00515747 C40.62488885 0.01085477 46.41919549 0.00757588 52.21354675 0.00158501 C56.65203198 -0.00202002 61.09050614 -0.00088229 65.5289917 0.0017128 C67.66613775 0.00238223 69.80328479 0.00155309 71.94042969 -0.00076675 C74.92172934 -0.00329233 77.90295288 0.00054597 80.88424683 0.00613403 C81.7767514 0.0041098 82.66925598 0.00208557 83.58880615 0 C89.68014075 0.02126624 89.68014075 0.02126624 90.79440308 1.13552856 C90.8929094 3.00592916 90.91995959 4.88010479 90.92024422 6.75309753 C90.92285196 7.98062713 90.92545971 9.20815672 90.92814648 10.47288418 C90.92598396 11.85270133 90.92372728 13.23251834 90.92138672 14.61233521 C90.92253756 16.06441569 90.92412484 17.51649589 90.92611396 18.96857548 C90.93031231 22.97774733 90.92821433 26.98689556 90.92512774 30.99606752 C90.92287591 35.31240282 90.92635217 39.62873389 90.92910767 43.94506836 C90.93356669 52.40825769 90.93258831 60.87143818 90.92969503 69.33462787 C90.92744151 76.20959722 90.92712824 83.08456408 90.92821884 89.95953369 C90.92837207 90.93603664 90.92852531 91.91253958 90.92868318 92.91863352 C90.92900289 94.90205026 90.92932711 96.88546699 90.92965578 98.86888373 C90.93251095 117.49063837 90.92922295 136.11238811 90.92385541 154.73414195 C90.91938734 170.73089568 90.92016326 186.72764215 90.92477417 202.72439575 C90.93011927 221.27710178 90.93223626 239.8298035 90.92916191 258.38251019 C90.92884334 260.35884794 90.92852897 262.33518569 90.92821884 264.31152344 C90.92798743 265.77032011 90.92798743 265.77032011 90.92775134 267.25858742 C90.92688599 274.12952564 90.92834945 281.00046113 90.93069839 287.87139893 C90.93349588 296.23870507 90.93275924 304.60600183 90.92741765 312.97330689 C90.92477993 317.2467553 90.92377676 321.52018802 90.9270668 325.79363632 C90.93002833 329.6992857 90.92843938 333.60490474 90.92308925 337.51055133 C90.92196444 338.92977584 90.92255763 340.34900287 90.92496504 341.76822579 C90.9279688 343.68480202 90.92431576 345.60138534 90.92024422 347.51795959 C90.92008186 348.58633025 90.91991951 349.65470091 90.91975224 350.75544643 C90.79440308 353.13552856 90.79440308 353.13552856 89.79440308 354.13552856 C86.81678938 354.23614127 83.8623314 354.27167749 80.88424683 354.2649231 C79.48192307 354.26755157 79.48192307 354.26755157 78.05126953 354.27023315 C74.94479545 354.2746533 71.83837779 354.27171311 68.73190308 354.26834106 C66.58338408 354.26901406 64.43486517 354.26998404 62.28634644 354.27124023 C57.77698036 354.27271743 53.26763405 354.27056196 48.75827026 354.26589966 C42.9639173 354.26020236 37.16961066 354.26348125 31.3752594 354.26947212 C26.93677417 354.27307715 22.49830001 354.27193942 18.05981445 354.26934433 C15.9226684 354.2686749 13.78552136 354.26950404 11.64837646 354.27182388 C8.66707681 354.27434946 5.68585328 354.27051116 2.70455933 354.2649231 C1.36580246 354.26795944 1.36580246 354.26795944 0 354.27105713 C-6.0913346 354.24979089 -6.0913346 354.24979089 -7.20559692 353.13552856 C-7.30410325 351.26512796 -7.33115344 349.39095234 -7.33143806 347.51795959 C-7.33404581 346.29043 -7.33665356 345.06290041 -7.33934033 343.79817295 C-7.33717781 342.4183558 -7.33492113 341.03853879 -7.33258057 339.65872192 C-7.33373141 338.20664143 -7.33531869 336.75456123 -7.33730781 335.30248165 C-7.34150616 331.2933098 -7.33940818 327.28416157 -7.33632159 323.2749896 C-7.33406976 318.95865431 -7.33754602 314.64232324 -7.34030151 310.32598877 C-7.34476054 301.86279944 -7.34378216 293.39961895 -7.34088887 284.93642926 C-7.33863536 278.06145991 -7.33832209 271.18649305 -7.33941269 264.31152344 C-7.33956592 263.33502049 -7.33971916 262.35851755 -7.33987703 261.35242361 C-7.34019674 259.36900687 -7.34052095 257.38559014 -7.34084962 255.4021734 C-7.3437048 236.78041875 -7.3404168 218.15866902 -7.33504926 199.53691518 C-7.33058118 183.54016145 -7.33135711 167.54341498 -7.33596802 151.54666138 C-7.34131311 132.99395535 -7.34343011 114.44125363 -7.34035575 95.88854694 C-7.34003719 93.91220919 -7.33972282 91.93587144 -7.33941269 89.95953369 C-7.33925841 88.98700258 -7.33910414 88.01447146 -7.33894519 87.01246971 C-7.33807984 80.14153149 -7.33954329 73.270596 -7.34189224 66.3996582 C-7.34468972 58.03235206 -7.34395308 49.6650553 -7.3386115 41.29775023 C-7.33597378 37.02430183 -7.3349706 32.75086911 -7.33826065 28.47742081 C-7.34122218 24.57177143 -7.33963323 20.66615239 -7.3342831 16.7605058 C-7.33315829 15.34128128 -7.33375148 13.92205425 -7.33615889 12.50283134 C-7.33916265 10.58625511 -7.33550961 8.66967179 -7.33143806 6.75309753 C-7.33127571 5.68472688 -7.33111336 4.61635622 -7.33094609 3.51561069 C-7.08016426 -1.2461391 -4.06591344 0.01419503 0 0 Z " fill="#6968D7" transform="translate(1270.2055969238281,0.864471435546875)"/>
<path d="M0 0 C32.01 0 64.02 0 97 0 C97 116.82 97 233.64 97 354 C64.99 354 32.98 354 0 354 C0 237.18 0 120.36 0 0 Z " fill="#6866D6" transform="translate(1381,1)"/>
<path d="M0 0 C32.01 0 64.02 0 97 0 C97 116.82 97 233.64 97 354 C64.99 354 32.98 354 0 354 C0 237.18 0 120.36 0 0 Z " fill="#6A68D7" transform="translate(1146,1)"/>
<path d="M0 0 C93.41035857 0 93.41035857 0 111.18359375 15.9609375 C121.94791281 27.23396729 125.40027034 40.15080154 125.3125 55.3125 C125.30686035 56.32924805 125.3012207 57.34599609 125.29541016 58.39355469 C125.0602187 72.92885245 121.07731847 85.37959554 110.953125 96.1640625 C93.33073088 112.72911297 69.88717875 114.53018339 46.9375 114.1875 C38.0584375 114.0946875 38.0584375 114.0946875 29 114 C29 137.1 29 160.2 29 184 C19.43 184 9.86 184 0 184 C0 123.28 0 62.56 0 0 Z M29 24 C29 46.11 29 68.22 29 91 C60.78402626 92.67879721 60.78402626 92.67879721 89 80 C90.53445175 78.15678447 90.53445175 78.15678447 91.6875 76.1875 C92.08324219 75.56230469 92.47898438 74.93710938 92.88671875 74.29296875 C95.88009904 68.12765565 96.33916086 62.27570349 96.3125 55.5625 C96.32861328 54.75490234 96.34472656 53.94730469 96.36132812 53.11523438 C96.36769191 45.21777866 94.3693479 38.50748608 88.921875 32.6015625 C77.10326394 22.75271995 61.27296317 23.7325707 46.875 23.875 C40.97625 23.91625 35.0775 23.9575 29 24 Z " fill="#4B49AC" transform="translate(1,65)"/>
<path d="M0 0 C9.57 0 19.14 0 29 0 C29.02321813 7.41174361 29.04305003 14.82335613 29.05493164 22.23510742 C29.0598958 24.74552849 29.06666932 27.25594677 29.07543945 29.76635742 C29.13021685 45.87413287 28.8840923 61.91474953 28 78 C28.5365773 77.52423523 29.0731546 77.04847046 29.62599182 76.55828857 C30.69199867 75.61822968 30.69199867 75.61822968 31.77954102 74.65917969 C32.48111832 74.03903992 33.18269562 73.41890015 33.90553284 72.77996826 C36.76687491 70.34827672 39.76987993 68.25849239 42.9375 66.25 C43.53941162 65.86585937 44.14132324 65.48171875 44.76147461 65.0859375 C49.33389494 62.24691297 53.75173776 60.16859915 59 59 C59.75925781 58.81953125 60.51851563 58.6390625 61.30078125 58.453125 C73.08586521 56.47473174 86.06217611 57.51386444 96.09375 64.44140625 C107.92784463 74.11723362 111.98290083 86.96690117 113.53878784 101.71263123 C114.01631974 106.64466759 114.14171876 111.52067517 114.12939453 116.47290039 C114.13202301 117.80404373 114.13202301 117.80404373 114.13470459 119.16207886 C114.13906025 122.05729196 114.1362098 124.95244267 114.1328125 127.84765625 C114.13348681 129.87121085 114.13445789 131.89476538 114.13571167 133.9183197 C114.13717964 138.13850686 114.13506112 142.35867275 114.13037109 146.57885742 C114.12464129 151.99965871 114.1279789 157.42041083 114.13394356 162.84121037 C114.13754549 167.00945918 114.13641286 171.1776962 114.13381577 175.34594536 C114.13314718 177.34632816 114.13397256 179.34671202 114.13629532 181.34709358 C114.13881934 184.12864179 114.13498635 186.91010832 114.12939453 189.69165039 C114.13141876 190.52326187 114.13344299 191.35487335 114.13552856 192.21168518 C114.1142695 197.8857305 114.1142695 197.8857305 113 199 C110.92737924 199.08767112 108.85179706 199.10695873 106.77734375 199.09765625 C105.51728516 199.09443359 104.25722656 199.09121094 102.95898438 199.08789062 C101.61848891 199.07953403 100.27799412 199.07106907 98.9375 199.0625 C97.59310058 199.0574866 96.2486994 199.05292342 94.90429688 199.04882812 C91.60282059 199.03699488 88.30143197 199.02050971 85 199 C84.99413376 197.87628494 84.98826752 196.75256989 84.98222351 195.59480286 C84.92479025 184.95894245 84.85192244 174.32328246 84.76428509 163.68762684 C84.71972616 158.22088432 84.68043871 152.75421385 84.65356445 147.28735352 C84.62738633 142.0028007 84.58688309 136.71852732 84.53681374 131.43414879 C84.52024256 129.42697334 84.50866803 127.41974966 84.50238609 125.41251564 C85.1591678 105.36481346 85.1591678 105.36481346 77 88 C69.79715378 83.1419101 62.01776267 83.05721718 53.65625 84.3671875 C46.40876529 86.28409469 40.64223211 91.25611211 35 96 C34.13058777 96.67846985 33.26117554 97.3569397 32.36541748 98.05596924 C29.05404998 102.17734225 29.29734742 105.31243682 29.35644531 110.45605469 C29.3431292 111.87388496 29.3431292 111.87388496 29.32954407 113.32035828 C29.30588294 116.43788899 29.31704669 119.55429072 29.328125 122.671875 C29.31754819 124.83710963 29.30463791 127.00233403 29.28948975 129.1675415 C29.2552692 134.86196203 29.24990801 140.55603995 29.25140381 146.25054932 C29.24817789 154.29220081 29.20558221 162.33375691 29.16766357 170.37530518 C29.14758149 174.65883888 29.13831294 178.94219019 29.13751221 183.22576904 C29.13369369 185.17102056 29.12984988 187.11627203 29.12597656 189.06152344 C29.12807632 189.95709457 29.13017609 190.85266571 29.13233948 191.77537537 C29.11300866 197.88699134 29.11300866 197.88699134 28 199 C18.76 199 9.52 199 0 199 C0 133.33 0 67.66 0 0 Z " fill="#4B49AC" transform="translate(436,50)"/>
<path d="M0 0 C14.46049616 12.65293414 23.02897525 26.88850368 26.28125 45.89453125 C27.79810516 70.60985544 25.68476553 92.88648873 8.79296875 112.359375 C-4.05049525 125.3226847 -19.90134712 132.05719675 -38.09375 132.33203125 C-55.78283684 132.18525031 -71.5424414 125.18978269 -84.05859375 112.78515625 C-88.00209414 108.50000164 -90.99180257 104.02674867 -93.71875 98.89453125 C-94.18925781 98.01023437 -94.65976562 97.1259375 -95.14453125 96.21484375 C-104.64138006 76.88497448 -105.10180169 52.45335923 -98.53125 32.08203125 C-91.82170424 13.6161094 -80.34622895 1.17732401 -62.94921875 -7.484375 C-42.64220589 -16.15083246 -17.60811874 -13.63617241 0 0 Z M-60.71875 20.89453125 C-72.04921276 35.83580083 -74.87242708 53.92474978 -72.40234375 72.24072266 C-70.9174742 80.37687071 -68.51543313 88.07446851 -63.71875 94.89453125 C-63.31269531 95.51585937 -62.90664063 96.1371875 -62.48828125 96.77734375 C-58.25754214 102.50931287 -52.42123237 105.72675695 -45.71875 107.89453125 C-35.00884815 109.35143379 -26.52119029 107.64905144 -17.53125 101.83203125 C-7.41177197 92.42923014 -3.21754832 78.41006849 -2.515625 65.01953125 C-2.20885256 48.93339421 -4.09376889 32.66268398 -15.59375 20.39453125 C-23.30968913 13.28463331 -31.0468571 11.52100415 -41.32421875 11.61328125 C-48.67529834 12.22234653 -55.82176858 15.23698324 -60.71875 20.89453125 Z " fill="#4B49AC" transform="translate(682.71875,120.10546875)"/>
<path d="M0 0 C0.90298828 0.57621094 0.90298828 0.57621094 1.82421875 1.1640625 C12.54797799 9.02011983 17.05258446 23.42784003 19 36 C19.66013123 43.5731534 19.46908535 51.18777864 19.390625 58.78125 C19.38314621 60.93314076 19.37746104 63.08503842 19.37347412 65.23693848 C19.35834669 70.84620632 19.31917886 76.45504669 19.2746582 82.06414795 C19.23342437 87.8096336 19.2154036 93.55518966 19.1953125 99.30078125 C19.1526698 110.53403993 19.08457845 121.76698415 19 133 C15.18751574 133.02887236 11.3750593 133.04675492 7.5625 133.0625 C6.47388672 133.07087891 5.38527344 133.07925781 4.26367188 133.08789062 C2.71196289 133.09272461 2.71196289 133.09272461 1.12890625 133.09765625 C-0.30859985 133.10551147 -0.30859985 133.10551147 -1.77514648 133.11352539 C-4 133 -4 133 -5 132 C-5.397493 129.65276034 -5.74368723 127.29671452 -6.0625 124.9375 C-6.32740234 123.00197266 -6.32740234 123.00197266 -6.59765625 121.02734375 C-6.73042969 120.02832031 -6.86320312 119.02929688 -7 118 C-7.79921875 118.58007812 -8.5984375 119.16015625 -9.421875 119.7578125 C-24.54081666 130.57827704 -38.91728355 137.75450595 -58 136 C-69.71518241 133.70620875 -78.52395507 128.93257346 -85.5625 119.23828125 C-92.00482299 109.2071642 -92.71621732 96.22803619 -90.31640625 84.72265625 C-88.27496344 78.68303498 -85.28378805 73.70514425 -81 69 C-80.45988281 68.40574219 -79.91976562 67.81148438 -79.36328125 67.19921875 C-62.7041491 50.90145606 -31.23764556 45.92081348 -9 45 C-9.56842703 42.45417255 -10.15406308 39.91440285 -10.75 37.375 C-10.90726562 36.66214844 -11.06453125 35.94929688 -11.2265625 35.21484375 C-12.90226565 28.18978056 -15.93278627 23.14346303 -22 19 C-30.26811875 14.71168468 -43.48075134 15.78289263 -52.125 18.5 C-54.10568043 19.27872906 -56.06200224 20.12040999 -58 21 C-58.7105957 21.32162109 -59.42119141 21.64324219 -60.15332031 21.97460938 C-65.13804446 24.24471602 -70.07795586 26.59729599 -75 29 C-85 14.6 -85 14.6 -85 9 C-73.9533156 2.84902563 -63.27257713 -2.70525186 -51 -6 C-50.09636719 -6.24363281 -49.19273437 -6.48726563 -48.26171875 -6.73828125 C-32.3833438 -10.28019493 -13.6653451 -9.32585681 0 0 Z M-58 80 C-62.21746969 84.5059287 -63.3369001 88.40785281 -63.5625 94.5625 C-63.31151206 100.26917317 -62.65777497 103.59191222 -59 108 C-51.94569443 113.31937195 -44.5497419 113.72631303 -36 113 C-25.99375425 110.71835605 -15.5744782 104.9329197 -9 97 C-8.55996858 94.21162027 -8.40914568 92.05947947 -8.51171875 89.29296875 C-8.52233086 88.20487663 -8.52233086 88.20487663 -8.53315735 87.09480286 C-8.56101594 84.79129297 -8.62372809 82.49026749 -8.6875 80.1875 C-8.71259437 78.62047797 -8.73540556 77.0534176 -8.75585938 75.48632812 C-8.81081319 71.65660344 -8.89701774 67.82872203 -9 64 C-25.12577942 63.74098039 -46.41064183 68.2878732 -58 80 Z " fill="#4B49AC" transform="translate(242,116)"/>
<path d="M0 0 C9.24 0 18.48 0 28 0 C28.01981934 2.56740967 28.03963867 5.13481934 28.06005859 7.7800293 C28.12725688 16.30564278 28.20489041 24.83113891 28.28752708 33.35661602 C28.33726662 38.52067619 28.38359689 43.6847181 28.421875 48.84887695 C28.45901222 53.84160565 28.50544545 58.83417256 28.55806351 63.82676125 C28.57645759 65.72229967 28.59161949 67.61787257 28.60334396 69.51346397 C28.03274626 89.670414 28.03274626 89.670414 35 108 C39.82571697 112.70198064 44.51445727 114.29372055 51.1875 114.375 C64.12476343 114.06973873 71.37759754 107.92425217 80 99 C80.53901443 98.47444519 81.07802887 97.94889038 81.63337708 97.40740967 C83.75334419 93.67292721 83.4393101 90.04971425 83.43237305 85.82519531 C83.4425647 84.898022 83.45275635 83.97084869 83.46325684 83.01557922 C83.49343461 79.95303339 83.50266018 76.89080011 83.51171875 73.828125 C83.52856187 71.70390784 83.54671161 69.57970067 83.56611633 67.45550537 C83.61366218 61.86601889 83.64344199 56.27657291 83.66955566 50.68695068 C83.69933797 44.98262534 83.74587632 39.27843959 83.79101562 33.57421875 C83.87710109 22.38286937 83.94287457 11.19153472 84 0 C93.57 0 103.14 0 113 0 C113 45.21 113 90.42 113 137 C105.08 137 97.16 137 89 137 C87.515 127.1 87.515 127.1 86 117 C84.246875 118.835625 82.49375 120.67125 80.6875 122.5625 C69.82109497 133.5518818 57.79085467 140.27196641 42 140.5 C31.07452817 140.3548501 21.02260066 137.64057206 13 130 C-0.94001667 115.42634621 -0.57930462 95.41120598 -0.390625 76.5625 C-0.38314694 74.34334833 -0.37746143 72.12418998 -0.37347412 69.9050293 C-0.35834096 64.11821647 -0.31916782 58.33181748 -0.2746582 52.54516602 C-0.23343707 46.61870926 -0.21540625 40.69218438 -0.1953125 34.765625 C-0.1526595 23.17687403 -0.08241301 11.58853648 0 0 Z " fill="#4B49AC" transform="translate(741,112)"/>
<path d="M0 0 C9.9 0 19.8 0 30 0 C31.11117188 3.14015625 32.22234375 6.2803125 33.3671875 9.515625 C34.09037114 11.55869009 34.81359172 13.60174211 35.53686523 15.64477539 C37.10467458 20.07344082 38.67177448 24.50235651 40.23852539 28.93139648 C45.08783508 42.64363995 45.08783508 42.64363995 50.00390625 56.33203125 C56.07037188 73.10043664 61.62469086 89.9995046 67 107 C69.04818293 103.37162515 70.06983611 99.52399847 71.15234375 95.53125 C71.59404421 93.93920489 72.03638077 92.34733616 72.47924805 90.75561523 C72.71557953 89.90248749 72.95191101 89.04935974 73.19540405 88.17037964 C78.57452098 68.81400884 84.46462025 49.63278968 90.53810501 30.48562622 C91.18899318 28.43279067 91.83850172 26.37952265 92.48776245 24.32617188 C93.70947206 20.46453499 94.93786812 16.60506627 96.16796875 12.74609375 C96.54036682 11.57199448 96.91276489 10.3978952 97.29644775 9.18821716 C97.63843201 8.12120071 97.98041626 7.05418427 98.33276367 5.95483398 C98.78144051 4.54934547 98.78144051 4.54934547 99.23918152 3.11546326 C100 1 100 1 101 0 C103.07262076 -0.08767112 105.14820294 -0.10695873 107.22265625 -0.09765625 C108.48271484 -0.09443359 109.74277344 -0.09121094 111.04101562 -0.08789062 C112.38151109 -0.07953403 113.72200588 -0.07106907 115.0625 -0.0625 C116.40689942 -0.0574866 117.7513006 -0.05292342 119.09570312 -0.04882812 C122.39717941 -0.03699488 125.69856803 -0.02050971 129 0 C122.90112153 18.58132275 116.57033599 37.07461402 110.10668945 55.53198242 C109.45388998 57.39630452 108.80114014 59.260644 108.1484375 61.125 C107.81782822 62.06930374 107.48721893 63.01360748 107.14659119 63.98652649 C104.5311662 71.46430421 101.93766638 78.94953623 99.3515625 86.4375 C98.95805603 87.57653778 98.56454956 88.71557556 98.15911865 89.88912964 C96.6097212 94.37489861 95.06058222 98.86075327 93.51464844 103.34771729 C89.4736645 115.07580021 85.39249818 126.78855908 81.21484375 138.46875 C80.85294952 139.48655548 80.4910553 140.50436096 80.11819458 141.55300903 C73.05009272 161.21381651 63.89898584 181.56513602 44 191 C31.93590744 195.50709076 19.01313516 195.51616877 7 191 C7.64517975 188.08318736 8.2911182 185.16654627 8.9375 182.25 C9.11990234 181.425 9.30230469 180.6 9.49023438 179.75 C9.75610352 178.55117188 9.75610352 178.55117188 10.02734375 177.328125 C10.18968506 176.5949707 10.35202637 175.86181641 10.51928711 175.10644531 C10.98553546 173.06338247 11.48420649 171.03106238 12 169 C13.2065625 169.04640625 14.413125 169.0928125 15.65625 169.140625 C17.27080836 169.17817287 18.88539378 169.21456977 20.5 169.25 C21.68722656 169.30027344 21.68722656 169.30027344 22.8984375 169.3515625 C29.80101511 169.46471951 34.60144203 167.59549607 40.06640625 163.421875 C47.04881549 155.61907825 52.21145608 144.46802198 53 134 C52.22632719 131.21562933 51.40093939 128.78928686 50.29394531 126.1484375 C49.99265528 125.39302768 49.69136524 124.63761786 49.38094521 123.85931683 C48.37878763 121.3580053 47.35364125 118.86681551 46.328125 116.375 C45.61390049 114.60586553 44.90113036 112.8361433 44.18972778 111.06587219 C42.28723563 106.34308654 40.36498132 101.62858221 38.43889618 96.91537857 C36.46233082 92.06849926 34.50471045 87.21398529 32.54541016 82.36010742 C28.73047712 72.91734529 24.89624878 63.48253501 21.05554199 54.05023193 C17.29498511 44.81396742 13.55271361 35.57029464 9.81152344 26.32617188 C8.22521875 22.40669884 6.6318803 18.49021464 5.03222656 14.57617188 C4.67836884 13.70695602 4.32451111 12.83774017 3.95993042 11.94218445 C3.31893352 10.36765442 2.67537852 8.79416197 2.02859497 7.22200012 C0 2.22594358 0 2.22594358 0 0 Z " fill="#4B49AC" transform="translate(283,112)"/>
<path d="M0 0 C0.78117187 0.62068359 0.78117187 0.62068359 1.578125 1.25390625 C0.99483696 5.41737603 -1.30009366 8.09026545 -3.796875 11.37890625 C-4.58835937 12.43335938 -5.37984375 13.4878125 -6.1953125 14.57421875 C-8.421875 17.25390625 -8.421875 17.25390625 -11.421875 19.25390625 C-11.958125 18.8671875 -12.494375 18.48046875 -13.046875 18.08203125 C-18.34775891 14.55973339 -23.42013687 12.41059078 -29.546875 10.87890625 C-30.20300781 10.71165039 -30.85914063 10.54439453 -31.53515625 10.37207031 C-39.43574938 8.53884885 -49.04921647 8.01198223 -56.25390625 12.359375 C-59.82826391 15.18581354 -62.09635395 17.89070794 -62.72265625 22.4375 C-62.74745409 27.20695201 -62.72653088 30.54868602 -59.421875 34.25390625 C-51.48281179 40.71529133 -41.86376914 43.8933733 -32.42919922 47.5012207 C-18.15288359 52.99020079 -4.0650907 59.20586083 3.078125 73.69140625 C6.15479605 82.46815983 6.16946372 94.148844 2.953125 102.87890625 C-2.65806036 114.29678865 -11.45689467 122.83471032 -23.41015625 127.2890625 C-42.79193332 133.49826994 -64.29392488 131.16723352 -82.421875 122.25390625 C-88.25435218 119.12287388 -93.4890911 115.66744974 -98.421875 111.25390625 C-96.95604165 106.7131926 -94.37655767 103.49123656 -91.296875 99.94140625 C-90.82894531 99.39162109 -90.36101563 98.84183594 -89.87890625 98.27539062 C-88.73235017 96.92994216 -87.57790049 95.59122725 -86.421875 94.25390625 C-82.62474381 95.63592517 -79.493991 97.43632616 -76.109375 99.62890625 C-64.76650447 106.30364211 -50.86337068 109.29817498 -37.828125 106.74609375 C-31.95290992 105.04228138 -27.24981298 102.32816558 -24.046875 96.94140625 C-22.79276943 91.54875232 -22.85625439 87.74508786 -24.796875 82.62890625 C-30.68966341 73.58956962 -44.13849183 70.32445197 -53.7512207 66.5793457 C-67.07917895 61.3604524 -82.53575518 54.54484869 -88.671875 40.57421875 C-92.23701575 29.54456457 -92.06986459 19.51318489 -87.171875 9.00390625 C-81.58617155 -1.21502521 -73.42275988 -8.08804149 -62.171875 -11.62109375 C-40.40193642 -17.55152529 -18.15772939 -13.09113716 0 0 Z " fill="#4B49AC" transform="translate(1081.421875,121.74609375)"/>
<path d="M0 0 C-0.62100473 2.8759151 -1.24666165 5.75068627 -1.875 8.625 C-2.04902344 9.43324219 -2.22304688 10.24148437 -2.40234375 11.07421875 C-3.37070225 15.48562968 -4.4699227 19.74059564 -6 24 C-7.18335938 23.95359375 -8.36671875 23.9071875 -9.5859375 23.859375 C-22.29936895 23.50416853 -31.26222589 24.49676633 -40.88671875 33.57421875 C-47.69486436 41.38911417 -51.1318282 49.07650779 -51.20532227 59.3269043 C-51.22017166 60.60040237 -51.22017166 60.60040237 -51.23532104 61.89962769 C-51.26692583 64.70779627 -51.29168948 67.51598178 -51.31640625 70.32421875 C-51.33697666 72.27049704 -51.35797315 74.21677088 -51.37937927 76.16304016 C-51.43459099 81.28728628 -51.48400427 86.41157265 -51.53222656 91.53588867 C-51.58244813 96.76419663 -51.63813078 101.99244608 -51.69335938 107.22070312 C-51.80092997 117.48042064 -51.90187282 127.74018782 -52 138 C-61.57 138 -71.14 138 -81 138 C-81 92.79 -81 47.58 -81 1 C-73.08 1 -65.16 1 -57 1 C-56.01 8.26 -55.02 15.52 -54 23 C-52.02 20.03 -50.04 17.06 -48 14 C-35.43665179 -0.76517212 -18.69239047 -7.59585709 0 0 Z " fill="#4B49AC" transform="translate(977,111)"/>
</svg>
